<?xml version="1.0" encoding="UTF-8"?>
<svg width="72px" height="72px" viewBox="0 0 72 72" version="1.1" xmlns="http://www.w3.org/2000/svg" xmlns:xlink="http://www.w3.org/1999/xlink">
    <title>形状结合</title>
    <g id="页面-1" stroke="none" stroke-width="1" fill="none" fill-rule="evenodd">
        <g id="18房间拍摄-延迟设置" transform="translate(-240.000000, -661.000000)" fill="#FFFFFF" fill-rule="nonzero">
            <g id="编组-15" transform="translate(240.000000, 661.000000)">
                <path d="M36,0 C55.882251,0 72,16.117749 72,36 C72,55.882251 55.882251,72 36,72 C16.117749,72 0,55.882251 0,36 C0,16.117749 16.117749,0 36,0 Z M36,3 C17.7746033,3 3,17.7746033 3,36 C3,54.2253967 17.7746033,69 36,69 C54.2253967,69 69,54.2253967 69,36 C69,17.7746033 54.2253967,3 36,3 Z M36,5.5 C52.8446849,5.5 66.5,19.1553151 66.5,36 C66.5,52.8446849 52.8446849,66.5 36,66.5 C19.1553151,66.5 5.5,52.8446849 5.5,36 C5.5,19.1553151 19.1553151,5.5 36,5.5 Z" id="形状结合"></path>
            </g>
        </g>
    </g>
</svg>